<svg xmlns="http://www.w3.org/2000/svg" viewBox="0 0 1600 360" preserveAspectRatio="xMidYMid slice">
 <defs>
  <linearGradient id="bg" x2="1" y2="1"><stop stop-color="#030812"/><stop offset=".4" stop-color="#071321"/><stop offset=".72" stop-color="#0a1b31"/><stop offset="1" stop-color="#040a14"/></linearGradient>
  <radialGradient id="moon" cx="32%" cy="24%"><stop stop-color="#fffdf2"/><stop offset=".27" stop-color="#f5e9bd"/><stop offset=".65" stop-color="#d1af58"/><stop offset="1" stop-color="#74501d"/></radialGradient>
  <radialGradient id="wash"><stop stop-color="#5288ca" stop-opacity=".42"/><stop offset=".45" stop-color="#2d609f" stop-opacity=".17"/><stop offset="1" stop-color="#071321" stop-opacity="0"/></radialGradient>
  <filter id="blur40"><feGaussianBlur stdDeviation="40"/></filter><filter id="blur14"><feGaussianBlur stdDeviation="14"/></filter><filter id="blur3"><feGaussianBlur stdDeviation="3"/></filter>
  <linearGradient id="flow" x1="0" y1="0" x2="1" y2="0"><stop stop-color="#3e74b8" stop-opacity="0"/><stop offset=".2" stop-color="#6ca1e0" stop-opacity=".25"/><stop offset=".56" stop-color="#d9e8fa" stop-opacity=".54"/><stop offset=".78" stop-color="#557fbd" stop-opacity=".22"/><stop offset="1" stop-color="#7aa8df" stop-opacity="0"/></linearGradient>
  <filter id="grain"><feTurbulence baseFrequency=".72" numOctaves="3" seed="11" type="fractalNoise"/></filter>
 </defs>
 <rect width="1600" height="360" fill="url(#bg)"/><ellipse cx="185" cy="185" rx="330" ry="285" fill="url(#wash)" filter="url(#blur40)"/>
 <g fill="none" stroke="#92b8e7" stroke-width=".7" opacity=".24"><circle cx="148" cy="180" r="58"/><circle cx="148" cy="180" r="74"/><circle cx="148" cy="180" r="91"/><ellipse cx="148" cy="180" rx="108" ry="35"/><path d="M148 42v276M12 180h272"/></g>
 <g fill="none" stroke="url(#flow)" stroke-linecap="round">
  <path d="M22 298C329 166 480 336 765 237s394-123 872-34" stroke-width="2.4" opacity=".52" filter="url(#blur3)"/>
  <path d="M-20 320C296 188 505 354 813 244s497-127 829-35" stroke-width="1.05" opacity=".72"/>
  <path d="M120 345C450 215 640 350 930 251s465-74 710-18" stroke-width=".65" opacity=".46"/>
  <path d="M346 329C635 230 802 308 1050 240s382-38 592 2" stroke-width="5" opacity=".14" filter="url(#blur14)"/>
 </g>
 <g fill="none" stroke="#6f9bd0" stroke-width=".5" opacity=".15"><path d="M255 84C550 7 844 28 1105 140s360 119 531 78"/><path d="M233 108C542 39 818 53 1083 156s379 108 550 73"/><path d="M314 57C590-7 871 12 1137 124s344 116 498 82"/></g>
 <circle cx="148" cy="180" r="52" fill="#538bd0" opacity=".22" filter="url(#blur14)"/><circle cx="142" cy="180" r="36" fill="url(#moon)"/><circle cx="160" cy="166" r="37" fill="#071321"/><path d="M148 32l2.6 8 8 2.6-8 2.6-2.6 8-2.6-8-8-2.6 8-2.6z" fill="#edf5ff"/>
 <g fill="#dcecff" opacity=".9"><circle cx="335" cy="92" r="1"/><circle cx="473" cy="226" r="1.2"/><circle cx="692" cy="70" r=".8"/><circle cx="902" cy="242" r="1"/><circle cx="1112" cy="88" r=".8"/><circle cx="1366" cy="187" r="1.1"/><circle cx="1526" cy="78" r=".8"/></g>
 <g fill="#e0bd69" opacity=".72"><circle cx="282" cy="203" r=".8"/><circle cx="579" cy="106" r="1"/><circle cx="816" cy="281" r=".8"/><circle cx="1202" cy="168" r="1"/><circle cx="1462" cy="267" r=".8"/></g>
 <rect width="1600" height="360" filter="url(#grain)" opacity=".035"/>
</svg>
