<svg xmlns="http://www.w3.org/2000/svg" viewBox="0 0 180 180">
 <defs>
  <radialGradient id="moonHalo"><stop offset="0" stop-color="#b7d2ff" stop-opacity=".28"/><stop offset=".58" stop-color="#6f91c8" stop-opacity=".10"/><stop offset="1" stop-color="#0b1628" stop-opacity="0"/></radialGradient>
  <radialGradient id="moonFace" cx="32%" cy="28%" r="74%"><stop offset="0" stop-color="#fff8dc"/><stop offset=".42" stop-color="#e5c470"/><stop offset=".8" stop-color="#986829"/><stop offset="1" stop-color="#473018"/></radialGradient>
  <radialGradient id="nightShade" cx="63%" cy="48%" r="67%"><stop offset="0" stop-color="#050b13"/><stop offset=".78" stop-color="#091321"/><stop offset="1" stop-color="#13243d" stop-opacity=".86"/></radialGradient>
  <filter id="moonGlow" x="-80%" y="-80%" width="260%" height="260%"><feGaussianBlur stdDeviation="3.5" result="b"/><feMerge><feMergeNode in="b"/><feMergeNode in="SourceGraphic"/></feMerge></filter>
 </defs>
 <circle cx="90" cy="90" r="86" fill="url(#moonHalo)"/>
 <g fill="none" stroke="#8eb2e9" stroke-linecap="round">
  <circle cx="90" cy="90" r="55" stroke-opacity=".22"/>
  <circle cx="90" cy="90" r="68" stroke-opacity=".1" stroke-dasharray="2 8"/>
  <path d="M90 7v24M90 149v24M7 90h24M149 90h24" stroke-width="1.2" stroke-opacity=".35"/>
  <path d="M90 3l4 8-4 8-4-8z" fill="#d6e6ff" stroke="none"/>
 </g>
 <circle cx="90" cy="90" r="40" fill="url(#moonFace)" filter="url(#moonGlow)"/>
 <circle cx="106" cy="84" r="43" fill="url(#nightShade)"/>
 <path d="M61 55c-13 15-18 36-12 54 6 19 21 33 39 38-27-3-48-26-48-54 0-15 7-29 21-38z" fill="#fff7dc" fill-opacity=".2"/>
 <circle cx="66" cy="75" r="4" fill="#6c4b25" fill-opacity=".24"/><circle cx="61" cy="101" r="6" fill="#6c4b25" fill-opacity=".18"/>
</svg>
